# xmcd
#
# Track frame offsets:
# 150
# 28487
# 49495
# 66687
# 86095
# 106607
# 121350
# 138942
# 155382
# 171305
#
# Disc length: 2582 seconds
#
# Revision: 0
# Processed by: cddbd v1.5.2PL0 Copyright (c) Steve Scherf et al.
# Submitted via: Audion 3.0.2 (http://www.panic.com/audion/)
#
DISCID=910a140a
DTITLE=The Ellis Kell Band - Down To the Levee
DYEAR=1900
DGENRE=
TTITLE0=Whyd'ja Have To Come Back Now
TTITLE1=Why I Love The Blues
TTITLE2=Ninety Days
TTITLE3=Blue Moon
TTITLE4=Flood Of '65
TTITLE5=Mop City Blues
TTITLE6=Talkin' Trash
TTITLE7=Hell Train
TTITLE8=Breakdown
TTITLE9=(Let's Go) Down To The Levee
EXTD=
EXTT0=
EXTT1=
EXTT2=
EXTT3=
EXTT4=
EXTT5=
EXTT6=
EXTT7=
EXTT8=
EXTT9=
PLAYORDER=
